<svg width="41" height="33" viewBox="0 0 41 33" fill="none" xmlns="http://www.w3.org/2000/svg">
<g clip-path="url(#clip0_1529_6420)">
<path d="M2.98927 0.819096C2.33929 0.306605 1.39555 0.425353 0.883061 1.07534C0.37057 1.72533 0.489317 2.66906 1.13931 3.18155L38.1387 32.181C38.7886 32.6935 39.7324 32.5748 40.2449 31.9248C40.7574 31.2748 40.6386 30.3311 39.9886 29.8186L35.7512 26.4999H39.0636C39.8949 26.4999 40.5636 25.8312 40.5636 24.9999C40.5636 24.1687 39.8949 23.4999 39.0636 23.4999H31.9263L28.1013 20.5H34.5637C35.67 20.5 36.5637 19.6063 36.5637 18.5C36.5637 17.3938 35.67 16.5001 34.5637 16.5001H29.3388L30.4638 13.1314C30.7013 12.4251 30.52 11.6439 30.0013 11.1064C29.4826 10.5689 28.7076 10.3689 27.9888 10.5814L20.339 12.8814C20.489 11.5877 20.564 10.2939 20.564 8.9877V8.50021C20.564 5.18777 17.8765 2.50032 14.5641 2.50032C12.2516 2.50032 10.2454 3.80654 9.24541 5.72526L2.98927 0.819096ZM12.5704 8.33146C12.6579 7.30648 13.5141 6.50025 14.5641 6.50025C15.6703 6.50025 16.564 7.39398 16.564 8.50021V8.9877C16.564 9.78769 16.5328 10.5877 16.4703 11.3814L12.5704 8.32521V8.33146ZM22.7702 16.3251L25.4451 15.5251L24.6764 17.825L22.7702 16.3313V16.3251ZM10.8391 15.7313C8.30168 16.4938 6.56421 18.8313 6.56421 21.4812V25.9749C6.56421 28.4749 8.59543 30.5061 11.0954 30.5061C12.7204 30.5061 14.2203 29.6373 15.0266 28.2249L15.8953 26.7061C16.989 24.7999 17.889 22.7875 18.589 20.7125L11.8829 15.4188L10.8391 15.7313ZM15.0516 18.6438C14.4016 20.7562 13.5203 22.7937 12.4204 24.7187L11.5516 26.2374C11.4579 26.3999 11.2829 26.5061 11.0891 26.5061C10.7954 26.5061 10.5579 26.2686 10.5579 25.9749V21.475C10.5579 20.5937 11.1391 19.8125 11.9829 19.5563L15.0453 18.6375L15.0516 18.6438ZM2.06429 23.4999C1.23305 23.4999 0.564316 24.1687 0.564316 24.9999C0.564316 25.8312 1.23305 26.4999 2.06429 26.4999H4.583C4.5705 26.3249 4.56425 26.1499 4.56425 25.9687V23.4999H2.06429Z" fill="white"/>
</g>
<defs>
<clipPath id="clip0_1529_6420">
<rect width="41" height="32.0001" fill="white" transform="translate(0 0.5)"/>
</clipPath>
</defs>
</svg>
