<svg width="55" height="31" viewBox="0 0 55 31" fill="none" xmlns="http://www.w3.org/2000/svg">
<g clip-path="url(#clip0_1529_6428)">
<path d="M11.4254 5.98807C11.4254 5.03986 12.1914 4.27379 13.1397 4.27379C14.0879 4.27379 14.8539 5.03986 14.8539 5.98807V6.40593C14.8539 7.88986 14.7254 9.36843 14.4736 10.8256L9.95215 12.1809C7.77715 12.8345 6.28786 14.8381 6.28786 17.1095V20.9613C6.28786 23.1041 8.02894 24.8452 10.1718 24.8452C11.5647 24.8452 12.8504 24.1006 13.5414 22.8899L14.2861 21.5881C15.7218 19.0702 16.7772 16.3541 17.4147 13.5256L22.4718 12.0095L21.8022 14.0184C21.6254 14.5434 21.7164 15.1166 22.0379 15.5613C22.3593 16.0059 22.8789 16.2738 23.4307 16.2738H30.2825C31.2307 16.2738 31.9968 15.5077 31.9968 14.5595C31.9968 13.6113 31.2307 12.8452 30.2825 12.8452H25.8039L26.7682 9.95772C26.9718 9.35236 26.8164 8.68271 26.3718 8.222C25.9272 7.76129 25.2629 7.58986 24.6468 7.772L18.0897 9.74343C18.2182 8.6345 18.2825 7.52557 18.2825 6.40593V5.98807C18.2825 3.14879 15.9789 0.845215 13.1397 0.845215C10.3004 0.845215 7.99679 3.14879 7.99679 5.98807V7.70236C7.99679 8.65057 8.76286 9.41664 9.71108 9.41664C10.6593 9.41664 11.4254 8.65057 11.4254 7.70236V5.98807ZM10.9325 15.4702L13.5575 14.6827C13.0004 16.4934 12.245 18.2399 11.3022 19.8899L10.5575 21.1916C10.4772 21.3309 10.3272 21.422 10.1611 21.422C9.90929 21.422 9.70572 21.2184 9.70572 20.9666V17.1095C9.70572 16.3541 10.2039 15.6845 10.9272 15.4649L10.9325 15.4702ZM2.42536 18.8452C1.71286 18.8452 1.13965 19.4184 1.13965 20.1309C1.13965 20.8434 1.71286 21.4166 2.42536 21.4166H4.58429C4.57358 21.2666 4.56822 21.1166 4.56822 20.9613V18.8452H2.42536ZM34.1397 21.4166C34.8522 21.4166 35.4254 20.8434 35.4254 20.1309C35.4254 19.4184 34.8522 18.8452 34.1397 18.8452H17.5272C17.1682 19.7184 16.7664 20.5756 16.3325 21.4166H34.1397Z" fill="white" fill-opacity="0.8"/>
</g>
<g clip-path="url(#clip1_1529_6428)">
<path d="M30.0928 11.2381C30.0928 10.2899 30.8589 9.52379 31.8071 9.52379C32.7553 9.52379 33.5214 10.2899 33.5214 11.2381V11.6559C33.5214 13.1399 33.3928 14.6184 33.1411 16.0756L28.6196 17.4309C26.4446 18.0845 24.9553 20.0881 24.9553 22.3595V26.2113C24.9553 28.3541 26.6964 30.0952 28.8393 30.0952C30.2321 30.0952 31.5178 29.3506 32.2089 28.1399L32.9536 26.8381C34.3893 24.3202 35.4446 21.6041 36.0821 18.7756L41.1393 17.2595L40.4696 19.2684C40.2928 19.7934 40.3839 20.3666 40.7053 20.8113C41.0268 21.2559 41.5464 21.5238 42.0982 21.5238H48.95C49.8982 21.5238 50.6643 20.7577 50.6643 19.8095C50.6643 18.8613 49.8982 18.0952 48.95 18.0952H44.4714L45.4357 15.2077C45.6393 14.6024 45.4839 13.9327 45.0393 13.472C44.5946 13.0113 43.9303 12.8399 43.3143 13.022L36.7571 14.9934C36.8857 13.8845 36.95 12.7756 36.95 11.6559V11.2381C36.95 8.39879 34.6464 6.09521 31.8071 6.09521C28.9678 6.09521 26.6643 8.39879 26.6643 11.2381V12.9524C26.6643 13.9006 27.4303 14.6666 28.3786 14.6666C29.3268 14.6666 30.0928 13.9006 30.0928 12.9524V11.2381ZM29.6 20.7202L32.225 19.9327C31.6678 21.7434 30.9125 23.4899 29.9696 25.1399L29.225 26.4416C29.1446 26.5809 28.9946 26.672 28.8286 26.672C28.5768 26.672 28.3732 26.4684 28.3732 26.2166V22.3595C28.3732 21.6041 28.8714 20.9345 29.5946 20.7149L29.6 20.7202ZM21.0928 24.0952C20.3803 24.0952 19.8071 24.6684 19.8071 25.3809C19.8071 26.0934 20.3803 26.6666 21.0928 26.6666H23.2518C23.2411 26.5166 23.2357 26.3666 23.2357 26.2113V24.0952H21.0928ZM52.8071 26.6666C53.5196 26.6666 54.0929 26.0934 54.0929 25.3809C54.0929 24.6684 53.5196 24.0952 52.8071 24.0952H36.1946C35.8357 24.9684 35.4339 25.8256 35 26.6666H52.8071Z" fill="white"/>
</g>
<defs>
<clipPath id="clip0_1529_6428">
<rect width="35" height="25" fill="white" transform="translate(0.435547 0.0234375)"/>
</clipPath>
<clipPath id="clip1_1529_6428">
<rect width="35" height="25" fill="white" transform="translate(19.5645 5.97656)"/>
</clipPath>
</defs>
</svg>
