<svg width="104" height="78" viewBox="0 0 104 78" fill="none" xmlns="http://www.w3.org/2000/svg">
<rect y="14" width="104" height="32" rx="4" fill="#C9E2A5"/>
<rect y="14" width="32" height="64" rx="4" fill="#C9E2A5"/>
<rect x="4" y="18" width="24" height="24" rx="4" fill="#93C54B"/>
<rect x="40" y="18" width="24" height="24" rx="4" fill="#93C54B"/>
<rect x="76" y="18" width="24" height="24" rx="4" fill="#93C54B" fill-opacity="0.5"/>
<rect x="4" y="50" width="24" height="24" rx="4" fill="#93C54B" fill-opacity="0.5"/>
<g clip-path="url(#clip0_1468_15051)">
<path d="M11.167 58.3999C11.167 57.8468 11.6139 57.3999 12.167 57.3999C12.7201 57.3999 13.167 57.8468 13.167 58.3999V58.6437C13.167 59.5093 13.092 60.3718 12.9451 61.2218L10.3076 62.0124C9.03887 62.3937 8.17012 63.5624 8.17012 64.8874V67.1343C8.17012 68.3843 9.18574 69.3999 10.4357 69.3999C11.2482 69.3999 11.9982 68.9655 12.4014 68.2593L12.8357 67.4999C13.6732 66.0312 14.2889 64.4468 14.6607 62.7968L17.6107 61.9124L17.2201 63.0843C17.117 63.3905 17.1701 63.7249 17.3576 63.9843C17.5451 64.2437 17.8482 64.3999 18.1701 64.3999H22.167C22.7201 64.3999 23.167 63.953 23.167 63.3999C23.167 62.8468 22.7201 62.3999 22.167 62.3999H19.5545L20.117 60.7155C20.2357 60.3624 20.1451 59.9718 19.8857 59.703C19.6264 59.4343 19.2389 59.3343 18.8795 59.4405L15.0545 60.5905C15.1295 59.9437 15.167 59.2968 15.167 58.6437V58.3999C15.167 56.7437 13.8232 55.3999 12.167 55.3999C10.5107 55.3999 9.16699 56.7437 9.16699 58.3999V59.3999C9.16699 59.953 9.61387 60.3999 10.167 60.3999C10.7201 60.3999 11.167 59.953 11.167 59.3999V58.3999ZM10.8795 63.9312L12.4107 63.4718C12.0857 64.528 11.6451 65.5468 11.0951 66.5093L10.6607 67.2686C10.6139 67.3499 10.5264 67.403 10.4295 67.403C10.2826 67.403 10.1639 67.2843 10.1639 67.1374V64.8874C10.1639 64.4468 10.4545 64.0562 10.8764 63.928L10.8795 63.9312ZM5.91699 65.8999C5.50137 65.8999 5.16699 66.2343 5.16699 66.6499C5.16699 67.0655 5.50137 67.3999 5.91699 67.3999H7.17637C7.17012 67.3124 7.16699 67.2249 7.16699 67.1343V65.8999H5.91699ZM24.417 67.3999C24.8326 67.3999 25.167 67.0655 25.167 66.6499C25.167 66.2343 24.8326 65.8999 24.417 65.8999H14.7264C14.517 66.4093 14.2826 66.9093 14.0295 67.3999H24.417Z" fill="white"/>
</g>
<rect x="40" y="50" width="24" height="24" rx="4" fill="#C9E2A5"/>
<rect x="76" y="50" width="24" height="24" rx="4" fill="#93C54B"/>
<path d="M27.5 2C27.5 0.89543 28.3954 0 29.5 0H73.5C74.6046 0 75.5 0.895431 75.5 2V14H27.5V2Z" fill="#C9E2A5"/>
<path d="M39.0734 10.62C38.7267 10.62 38.3967 10.5567 38.0834 10.43C37.7701 10.2967 37.4967 10.1367 37.2634 9.95L37.6734 9.4C37.8867 9.56667 38.1067 9.70667 38.3334 9.82C38.5601 9.92667 38.8167 9.98 39.1034 9.98C39.4234 9.98 39.6634 9.90667 39.8234 9.76C39.9834 9.60667 40.0634 9.42667 40.0634 9.22C40.0634 9.05333 40.0067 8.91333 39.8934 8.8C39.7867 8.68667 39.6467 8.59333 39.4734 8.52C39.3067 8.44 39.1334 8.36667 38.9534 8.3C38.7267 8.21333 38.5034 8.11667 38.2834 8.01C38.0634 7.89667 37.8834 7.75333 37.7434 7.58C37.6034 7.4 37.5334 7.17333 37.5334 6.9C37.5334 6.50667 37.6801 6.18 37.9734 5.92C38.2734 5.65333 38.6867 5.52 39.2134 5.52C39.5134 5.52 39.7934 5.57333 40.0534 5.68C40.3134 5.78667 40.5367 5.91667 40.7234 6.07L40.3234 6.59C40.1567 6.46333 39.9834 6.36 39.8034 6.28C39.6234 6.2 39.4267 6.16 39.2134 6.16C38.9067 6.16 38.6801 6.23 38.5334 6.37C38.3934 6.51 38.3234 6.67333 38.3234 6.86C38.3234 7.01333 38.3734 7.14 38.4734 7.24C38.5734 7.33333 38.7034 7.41667 38.8634 7.49C39.0234 7.55667 39.1934 7.62667 39.3734 7.7C39.6067 7.78667 39.8367 7.88667 40.0634 8C40.2901 8.10667 40.4767 8.25333 40.6234 8.44C40.7767 8.62 40.8534 8.86333 40.8534 9.17C40.8534 9.43 40.7834 9.67 40.6434 9.89C40.5101 10.11 40.3101 10.2867 40.0434 10.42C39.7834 10.5533 39.4601 10.62 39.0734 10.62ZM43.3275 10.62C42.8075 10.62 42.4442 10.47 42.2375 10.17C42.0375 9.87 41.9375 9.48 41.9375 9V6.31H41.2175V5.69L41.9775 5.64L42.0775 4.28H42.7675V5.64H44.0775V6.31H42.7675V9.01C42.7675 9.31 42.8209 9.54333 42.9275 9.71C43.0409 9.87 43.2375 9.95 43.5175 9.95C43.6042 9.95 43.6975 9.93667 43.7975 9.91C43.8975 9.87667 43.9875 9.84667 44.0675 9.82L44.2275 10.44C44.0942 10.4867 43.9475 10.5267 43.7875 10.56C43.6342 10.6 43.4809 10.62 43.3275 10.62ZM46.0816 10.62C45.6749 10.62 45.3349 10.5 45.0616 10.26C44.7949 10.0133 44.6616 9.67333 44.6616 9.24C44.6616 8.70667 44.8983 8.3 45.3716 8.02C45.8516 7.73333 46.6083 7.53333 47.6416 7.42C47.6416 7.21333 47.6116 7.01667 47.5516 6.83C47.4983 6.64333 47.3983 6.49333 47.2516 6.38C47.1116 6.26 46.9083 6.2 46.6416 6.2C46.3616 6.2 46.0983 6.25333 45.8516 6.36C45.6049 6.46667 45.3849 6.58667 45.1916 6.72L44.8716 6.15C45.0983 6.00333 45.3749 5.86333 45.7016 5.73C46.0349 5.59 46.3949 5.52 46.7816 5.52C47.3749 5.52 47.8049 5.70333 48.0716 6.07C48.3383 6.43 48.4716 6.91333 48.4716 7.52V10.5H47.7916L47.7216 9.92H47.6916C47.4649 10.1067 47.2149 10.27 46.9416 10.41C46.6749 10.55 46.3883 10.62 46.0816 10.62ZM46.3216 9.96C46.5549 9.96 46.7749 9.90333 46.9816 9.79C47.1883 9.67667 47.4083 9.51667 47.6416 9.31V7.96C46.8349 8.06 46.2683 8.21 45.9416 8.41C45.6216 8.61 45.4616 8.86667 45.4616 9.18C45.4616 9.45333 45.5449 9.65333 45.7116 9.78C45.8783 9.9 46.0816 9.96 46.3216 9.96ZM51.6407 12.74C51.0473 12.74 50.564 12.6267 50.1907 12.4C49.8173 12.1733 49.6307 11.85 49.6307 11.43C49.6307 11.2233 49.694 11.0233 49.8207 10.83C49.9473 10.6433 50.1207 10.4767 50.3407 10.33V10.29C50.2207 10.2167 50.1173 10.1133 50.0307 9.98C49.9507 9.84667 49.9107 9.68667 49.9107 9.5C49.9107 9.29333 49.9673 9.11333 50.0807 8.96C50.194 8.80667 50.314 8.68667 50.4407 8.6V8.56C50.2807 8.42667 50.134 8.24667 50.0007 8.02C49.874 7.79333 49.8107 7.53667 49.8107 7.25C49.8107 6.89667 49.894 6.59 50.0607 6.33C50.2273 6.07 50.4507 5.87 50.7307 5.73C51.0107 5.59 51.314 5.52 51.6407 5.52C51.774 5.52 51.9007 5.53333 52.0207 5.56C52.1407 5.58 52.244 5.60667 52.3307 5.64H54.0207V6.27H53.0207C53.134 6.37667 53.2273 6.52 53.3007 6.7C53.3807 6.87333 53.4207 7.06333 53.4207 7.27C53.4207 7.61667 53.3407 7.91667 53.1807 8.17C53.0207 8.42333 52.8073 8.62 52.5407 8.76C52.274 8.89333 51.974 8.96 51.6407 8.96C51.3807 8.96 51.1373 8.90333 50.9107 8.79C50.824 8.86333 50.7507 8.94667 50.6907 9.04C50.6307 9.12667 50.6007 9.23667 50.6007 9.37C50.6007 9.52333 50.6607 9.65 50.7807 9.75C50.9073 9.85 51.134 9.9 51.4607 9.9H52.4007C52.9673 9.9 53.3907 9.99333 53.6707 10.18C53.9573 10.36 54.1007 10.6533 54.1007 11.06C54.1007 11.36 54.0007 11.6367 53.8007 11.89C53.6007 12.1433 53.3173 12.3467 52.9507 12.5C52.584 12.66 52.1473 12.74 51.6407 12.74ZM51.6407 8.41C51.9207 8.41 52.1607 8.30667 52.3607 8.1C52.5673 7.88667 52.6707 7.60333 52.6707 7.25C52.6707 6.89667 52.5707 6.62 52.3707 6.42C52.1707 6.22 51.9273 6.12 51.6407 6.12C51.354 6.12 51.1107 6.22 50.9107 6.42C50.7107 6.62 50.6107 6.89667 50.6107 7.25C50.6107 7.60333 50.7107 7.88667 50.9107 8.1C51.1173 8.30667 51.3607 8.41 51.6407 8.41ZM51.7607 12.17C52.2273 12.17 52.6007 12.0667 52.8807 11.86C53.1607 11.66 53.3007 11.4333 53.3007 11.18C53.3007 10.9533 53.214 10.7967 53.0407 10.71C52.874 10.6233 52.634 10.58 52.3207 10.58H51.4807C51.3873 10.58 51.284 10.5733 51.1707 10.56C51.064 10.5467 50.9573 10.5267 50.8507 10.5C50.6773 10.6267 50.5507 10.76 50.4707 10.9C50.3907 11.04 50.3507 11.18 50.3507 11.32C50.3507 11.58 50.474 11.7867 50.7207 11.94C50.974 12.0933 51.3207 12.17 51.7607 12.17ZM56.873 10.62C56.4397 10.62 56.0463 10.52 55.693 10.32C55.3397 10.1133 55.0597 9.82 54.853 9.44C54.6463 9.06 54.543 8.60667 54.543 8.08C54.543 7.54667 54.6463 7.09 54.853 6.71C55.0663 6.33 55.3397 6.03667 55.673 5.83C56.0063 5.62333 56.3563 5.52 56.723 5.52C57.343 5.52 57.8197 5.72667 58.153 6.14C58.493 6.55333 58.663 7.10667 58.663 7.8C58.663 7.88667 58.6597 7.97333 58.653 8.06C58.653 8.14 58.6463 8.21 58.633 8.27H55.353C55.3863 8.78333 55.5463 9.19333 55.833 9.5C56.1263 9.80667 56.5063 9.96 56.973 9.96C57.2063 9.96 57.4197 9.92667 57.613 9.86C57.813 9.78667 58.003 9.69333 58.183 9.58L58.473 10.12C58.2663 10.2533 58.0297 10.37 57.763 10.47C57.503 10.57 57.2063 10.62 56.873 10.62ZM55.343 7.68H57.943C57.943 7.18667 57.8363 6.81333 57.623 6.56C57.4163 6.3 57.123 6.17 56.743 6.17C56.403 6.17 56.0963 6.30333 55.823 6.57C55.5563 6.83 55.3963 7.2 55.343 7.68ZM61.8359 10.5V9.82H63.2959V5.12H62.1359V4.59C62.4292 4.53667 62.6826 4.47333 62.8959 4.4C63.1159 4.32 63.3126 4.22667 63.4859 4.12H64.1159V9.82H65.4359V10.5H61.8359Z" fill="white"/>
<defs>
<clipPath id="clip0_1468_15051">
<rect width="21" height="15" fill="white" transform="translate(4.5 54.5)"/>
</clipPath>
</defs>
</svg>
