<svg width="92" height="65" viewBox="0 0 92 65" fill="none" xmlns="http://www.w3.org/2000/svg">
<rect width="92" height="65" rx="4" fill="#C9E2A5"/>
<rect x="8" y="8" width="32" height="32" rx="4" fill="white" fill-opacity="0.5"/>
<g clip-path="url(#clip0_1468_15052)">
<path d="M20.167 20.3999C20.167 19.8468 20.6139 19.3999 21.167 19.3999C21.7201 19.3999 22.167 19.8468 22.167 20.3999V20.6437C22.167 21.5093 22.092 22.3718 21.9451 23.2218L19.3076 24.0124C18.0389 24.3937 17.1701 25.5624 17.1701 26.8874V29.1343C17.1701 30.3843 18.1857 31.3999 19.4357 31.3999C20.2482 31.3999 20.9982 30.9655 21.4014 30.2593L21.8357 29.4999C22.6732 28.0312 23.2889 26.4468 23.6607 24.7968L26.6107 23.9124L26.2201 25.0843C26.117 25.3905 26.1701 25.7249 26.3576 25.9843C26.5451 26.2437 26.8482 26.3999 27.1701 26.3999H31.167C31.7201 26.3999 32.167 25.953 32.167 25.3999C32.167 24.8468 31.7201 24.3999 31.167 24.3999H28.5545L29.117 22.7155C29.2357 22.3624 29.1451 21.9718 28.8857 21.703C28.6264 21.4343 28.2389 21.3343 27.8795 21.4405L24.0545 22.5905C24.1295 21.9437 24.167 21.2968 24.167 20.6437V20.3999C24.167 18.7437 22.8232 17.3999 21.167 17.3999C19.5107 17.3999 18.167 18.7437 18.167 20.3999V21.3999C18.167 21.953 18.6139 22.3999 19.167 22.3999C19.7201 22.3999 20.167 21.953 20.167 21.3999V20.3999ZM19.8795 25.9312L21.4107 25.4718C21.0857 26.528 20.6451 27.5468 20.0951 28.5093L19.6607 29.2686C19.6139 29.3499 19.5264 29.403 19.4295 29.403C19.2826 29.403 19.1639 29.2843 19.1639 29.1374V26.8874C19.1639 26.4468 19.4545 26.0562 19.8764 25.928L19.8795 25.9312ZM14.917 27.8999C14.5014 27.8999 14.167 28.2343 14.167 28.6499C14.167 29.0655 14.5014 29.3999 14.917 29.3999H16.1764C16.1701 29.3124 16.167 29.2249 16.167 29.1343V27.8999H14.917ZM33.417 29.3999C33.8326 29.3999 34.167 29.0655 34.167 28.6499C34.167 28.2343 33.8326 27.8999 33.417 27.8999H23.7264C23.517 28.4093 23.2826 28.9093 23.0295 29.3999H33.417Z" fill="#93C54B"/>
</g>
<g filter="url(#filter0_d_1468_15052)">
<rect x="52" y="8" width="32" height="32" rx="4" fill="white"/>
<g clip-path="url(#clip1_1468_15052)">
<path d="M65.0562 16.5C65.5479 16.5 65.9452 16.8973 65.9452 17.389V18.2781H69.5014V17.389C69.5014 16.8973 69.8987 16.5 70.3904 16.5C70.8822 16.5 71.2795 16.8973 71.2795 17.389V18.2781H72.613C73.3493 18.2781 73.9466 18.8754 73.9466 19.6117V20.9452H61.5V19.6117C61.5 18.8754 62.0973 18.2781 62.8336 18.2781H64.1671V17.389C64.1671 16.8973 64.5644 16.5 65.0562 16.5ZM61.5 21.8343H73.9466V23.0456L69.5375 27.4547C69.3097 27.6825 69.1485 27.9687 69.0708 28.2798L68.654 29.9496C68.5901 30.2107 68.604 30.4774 68.6929 30.7219L62.8336 30.7247C62.0973 30.7247 61.5 30.1274 61.5 29.3911V21.8343ZM64.8339 24.0569C64.4644 24.0569 64.1671 24.3541 64.1671 24.7236C64.1671 25.0932 64.4644 25.3904 64.8339 25.3904H68.8346C69.2041 25.3904 69.5014 25.0932 69.5014 24.7236C69.5014 24.3541 69.2041 24.0569 68.8346 24.0569H64.8339ZM64.1671 27.3908C64.1671 27.7603 64.4644 28.0576 64.8339 28.0576H67.0565C67.426 28.0576 67.7233 27.7603 67.7233 27.3908C67.7233 27.0213 67.426 26.724 67.0565 26.724H64.8339C64.4644 26.724 64.1671 27.0213 64.1671 27.3908ZM76.7749 23.0484L77.1749 23.4484C77.6084 23.8818 77.6084 24.5847 77.1749 25.0209L76.3581 25.8377L74.3856 23.8652L75.2024 23.0484C75.6358 22.6149 76.3387 22.6149 76.7749 23.0484ZM70.1654 28.0853L73.7549 24.4958L75.7275 26.4684L72.138 30.0551C72.024 30.169 71.8824 30.2496 71.724 30.2885L70.0543 30.7052C69.9015 30.7441 69.7431 30.6997 69.632 30.5886C69.5208 30.4774 69.4764 30.3191 69.5153 30.1663L69.932 28.4965C69.9709 28.3409 70.0515 28.1965 70.1654 28.0826V28.0853Z" fill="#93C54B"/>
</g>
</g>
<rect x="25.5" y="44" width="41" height="13" rx="4" fill="#93C54B" fill-opacity="0.75"/>
<path d="M43.1042 54.12C42.5575 54.12 42.0708 53.98 41.6442 53.7C41.2242 53.42 40.8942 53.0233 40.6542 52.51C40.4208 51.9967 40.3042 51.39 40.3042 50.69C40.3042 49.99 40.4208 49.39 40.6542 48.89C40.8942 48.3833 41.2242 47.9967 41.6442 47.73C42.0708 47.4567 42.5575 47.32 43.1042 47.32C43.6575 47.32 44.1442 47.4567 44.5642 47.73C44.9842 47.9967 45.3142 48.3833 45.5542 48.89C45.7942 49.39 45.9142 49.99 45.9142 50.69C45.9142 51.39 45.7942 51.9967 45.5542 52.51C45.3142 53.0233 44.9842 53.42 44.5642 53.7C44.1442 53.98 43.6575 54.12 43.1042 54.12ZM43.1042 53.39C43.4975 53.39 43.8375 53.28 44.1242 53.06C44.4175 52.8333 44.6442 52.52 44.8042 52.12C44.9642 51.7133 45.0442 51.2367 45.0442 50.69C45.0442 49.8767 44.8675 49.2333 44.5142 48.76C44.1608 48.2867 43.6908 48.05 43.1042 48.05C42.5175 48.05 42.0475 48.2867 41.6942 48.76C41.3408 49.2333 41.1642 49.8767 41.1642 50.69C41.1642 51.2367 41.2442 51.7133 41.4042 52.12C41.5642 52.52 41.7908 52.8333 42.0842 53.06C42.3775 53.28 42.7175 53.39 43.1042 53.39ZM47.3248 54V47.44H48.1548V50.73H48.1848L50.9148 47.44H51.8548L49.8048 49.94L52.1748 54H51.2448L49.2848 50.59L48.1548 51.92V54H47.3248Z" fill="white"/>
<g clip-path="url(#clip2_1468_15052)">
<path d="M88.8816 3.68312C89.0378 3.52694 89.0378 3.27331 88.8816 3.11713C88.7254 2.96096 88.4718 2.96096 88.3156 3.11713L87 4.43402L85.6831 3.11838C85.5269 2.96221 85.2733 2.96221 85.1171 3.11838C84.961 3.27456 84.961 3.52819 85.1171 3.68437L86.434 5L85.1184 6.31688C84.9622 6.47306 84.9622 6.72669 85.1184 6.88287C85.2746 7.03904 85.5282 7.03904 85.6844 6.88287L87 5.56598L88.3169 6.88162C88.4731 7.03779 88.7267 7.03779 88.8829 6.88162C89.039 6.72544 89.039 6.47181 88.8829 6.31563L87.566 5L88.8816 3.68312Z" fill="#93C54B"/>
</g>
<defs>
<filter id="filter0_d_1468_15052" x="52" y="8" width="36" height="36" filterUnits="userSpaceOnUse" color-interpolation-filters="sRGB">
<feFlood flood-opacity="0" result="BackgroundImageFix"/>
<feColorMatrix in="SourceAlpha" type="matrix" values="0 0 0 0 0 0 0 0 0 0 0 0 0 0 0 0 0 0 127 0" result="hardAlpha"/>
<feOffset dx="2" dy="2"/>
<feGaussianBlur stdDeviation="1"/>
<feComposite in2="hardAlpha" operator="out"/>
<feColorMatrix type="matrix" values="0 0 0 0 0 0 0 0 0 0 0 0 0 0 0 0 0 0 0.1 0"/>
<feBlend mode="normal" in2="BackgroundImageFix" result="effect1_dropShadow_1468_15052"/>
<feBlend mode="normal" in="SourceGraphic" in2="effect1_dropShadow_1468_15052" result="shape"/>
</filter>
<clipPath id="clip0_1468_15052">
<rect width="21" height="15" fill="white" transform="translate(13.5 16.5)"/>
</clipPath>
<clipPath id="clip1_1468_15052">
<rect width="16" height="15" fill="white" transform="translate(61.5 16.5)"/>
</clipPath>
<clipPath id="clip2_1468_15052">
<rect width="4" height="4" fill="white" transform="translate(85 3)"/>
</clipPath>
</defs>
</svg>
