<svg width="105" height="79" viewBox="0 0 105 79" fill="none" xmlns="http://www.w3.org/2000/svg">
<rect x="0.5" y="14.5" width="104" height="32" rx="4" fill="#C9E2A5"/>
<rect x="0.5" y="14.5" width="32" height="64" rx="4" fill="#C9E2A5"/>
<rect x="4.5" y="18.5" width="24" height="24" rx="4" fill="#93C54B"/>
<rect x="40.5" y="18.5" width="24" height="24" rx="4" fill="#93C54B"/>
<rect x="76.5" y="18.5" width="24" height="24" rx="4" fill="#93C54B" fill-opacity="0.5"/>
<rect x="4.5" y="50.5" width="24" height="24" rx="4" fill="#93C54B" fill-opacity="0.5"/>
<g clip-path="url(#clip0_1529_6550)">
<path d="M11.667 58.8999C11.667 58.3468 12.1139 57.8999 12.667 57.8999C13.2201 57.8999 13.667 58.3468 13.667 58.8999V59.1437C13.667 60.0093 13.592 60.8718 13.4451 61.7218L10.8076 62.5124C9.53887 62.8937 8.67012 64.0624 8.67012 65.3874V67.6343C8.67012 68.8843 9.68574 69.8999 10.9357 69.8999C11.7482 69.8999 12.4982 69.4655 12.9014 68.7593L13.3357 67.9999C14.1732 66.5312 14.7889 64.9468 15.1607 63.2968L18.1107 62.4124L17.7201 63.5843C17.617 63.8905 17.6701 64.2249 17.8576 64.4843C18.0451 64.7437 18.3482 64.8999 18.6701 64.8999H22.667C23.2201 64.8999 23.667 64.453 23.667 63.8999C23.667 63.3468 23.2201 62.8999 22.667 62.8999H20.0545L20.617 61.2155C20.7357 60.8624 20.6451 60.4718 20.3857 60.203C20.1264 59.9343 19.7389 59.8343 19.3795 59.9405L15.5545 61.0905C15.6295 60.4437 15.667 59.7968 15.667 59.1437V58.8999C15.667 57.2437 14.3232 55.8999 12.667 55.8999C11.0107 55.8999 9.66699 57.2437 9.66699 58.8999V59.8999C9.66699 60.453 10.1139 60.8999 10.667 60.8999C11.2201 60.8999 11.667 60.453 11.667 59.8999V58.8999ZM11.3795 64.4312L12.9107 63.9718C12.5857 65.028 12.1451 66.0468 11.5951 67.0093L11.1607 67.7686C11.1139 67.8499 11.0264 67.903 10.9295 67.903C10.7826 67.903 10.6639 67.7843 10.6639 67.6374V65.3874C10.6639 64.9468 10.9545 64.5562 11.3764 64.428L11.3795 64.4312ZM6.41699 66.3999C6.00137 66.3999 5.66699 66.7343 5.66699 67.1499C5.66699 67.5655 6.00137 67.8999 6.41699 67.8999H7.67637C7.67012 67.8124 7.66699 67.7249 7.66699 67.6343V66.3999H6.41699ZM24.917 67.8999C25.3326 67.8999 25.667 67.5655 25.667 67.1499C25.667 66.7343 25.3326 66.3999 24.917 66.3999H15.2264C15.017 66.9093 14.7826 67.4093 14.5295 67.8999H24.917Z" fill="white"/>
</g>
<rect x="40.5" y="50.5" width="24" height="24" rx="4" fill="#C9E2A5"/>
<rect x="76.5" y="50.5" width="24" height="24" rx="4" fill="#93C54B"/>
<g clip-path="url(#clip1_1529_6550)">
<path d="M51.75 57C52.7859 57 53.625 57.8391 53.625 58.875V60H49.875V58.875C49.875 57.8391 50.7141 57 51.75 57ZM48.375 58.875V60H48C47.1727 60 46.5 60.6727 46.5 61.5V66C46.5 66.8273 47.1727 67.5 48 67.5H55.5C56.3273 67.5 57 66.8273 57 66V61.5C57 60.6727 56.3273 60 55.5 60H55.125V58.875C55.125 57.0117 53.6133 55.5 51.75 55.5C49.8867 55.5 48.375 57.0117 48.375 58.875ZM52.5 63V64.5C52.5 64.9148 52.1648 65.25 51.75 65.25C51.3352 65.25 51 64.9148 51 64.5V63C51 62.5852 51.3352 62.25 51.75 62.25C52.1648 62.25 52.5 62.5852 52.5 63Z" fill="white"/>
</g>
<g clip-path="url(#clip2_1529_6550)">
<path d="M87.75 57C88.7859 57 89.625 57.8391 89.625 58.875V60H85.875V58.875C85.875 57.8391 86.7141 57 87.75 57ZM84.375 58.875V60H84C83.1727 60 82.5 60.6727 82.5 61.5V66C82.5 66.8273 83.1727 67.5 84 67.5H91.5C92.3273 67.5 93 66.8273 93 66V61.5C93 60.6727 92.3273 60 91.5 60H91.125V58.875C91.125 57.0117 89.6133 55.5 87.75 55.5C85.8867 55.5 84.375 57.0117 84.375 58.875ZM88.5 63V64.5C88.5 64.9148 88.1648 65.25 87.75 65.25C87.3352 65.25 87 64.9148 87 64.5V63C87 62.5852 87.3352 62.25 87.75 62.25C88.1648 62.25 88.5 62.5852 88.5 63Z" fill="white"/>
</g>
<path d="M28 2.5C28 1.39543 28.8954 0.5 30 0.5H74C75.1046 0.5 76 1.39543 76 2.5V14.5H28V2.5Z" fill="#C9E2A5"/>
<path d="M39.5734 11.12C39.2267 11.12 38.8967 11.0567 38.5834 10.93C38.2701 10.7967 37.9967 10.6367 37.7634 10.45L38.1734 9.9C38.3867 10.0667 38.6067 10.2067 38.8334 10.32C39.0601 10.4267 39.3167 10.48 39.6034 10.48C39.9234 10.48 40.1634 10.4067 40.3234 10.26C40.4834 10.1067 40.5634 9.92667 40.5634 9.72C40.5634 9.55333 40.5067 9.41333 40.3934 9.3C40.2867 9.18667 40.1467 9.09333 39.9734 9.02C39.8067 8.94 39.6334 8.86667 39.4534 8.8C39.2267 8.71333 39.0034 8.61667 38.7834 8.51C38.5634 8.39667 38.3834 8.25333 38.2434 8.08C38.1034 7.9 38.0334 7.67333 38.0334 7.4C38.0334 7.00667 38.1801 6.68 38.4734 6.42C38.7734 6.15333 39.1867 6.02 39.7134 6.02C40.0134 6.02 40.2934 6.07333 40.5534 6.18C40.8134 6.28667 41.0367 6.41667 41.2234 6.57L40.8234 7.09C40.6567 6.96333 40.4834 6.86 40.3034 6.78C40.1234 6.7 39.9267 6.66 39.7134 6.66C39.4067 6.66 39.1801 6.73 39.0334 6.87C38.8934 7.01 38.8234 7.17333 38.8234 7.36C38.8234 7.51333 38.8734 7.64 38.9734 7.74C39.0734 7.83333 39.2034 7.91667 39.3634 7.99C39.5234 8.05667 39.6934 8.12667 39.8734 8.2C40.1067 8.28667 40.3367 8.38667 40.5634 8.5C40.7901 8.60667 40.9767 8.75333 41.1234 8.94C41.2767 9.12 41.3534 9.36333 41.3534 9.67C41.3534 9.93 41.2834 10.17 41.1434 10.39C41.0101 10.61 40.8101 10.7867 40.5434 10.92C40.2834 11.0533 39.9601 11.12 39.5734 11.12ZM43.8275 11.12C43.3075 11.12 42.9442 10.97 42.7375 10.67C42.5375 10.37 42.4375 9.98 42.4375 9.5V6.81H41.7175V6.19L42.4775 6.14L42.5775 4.78H43.2675V6.14H44.5775V6.81H43.2675V9.51C43.2675 9.81 43.3209 10.0433 43.4275 10.21C43.5409 10.37 43.7375 10.45 44.0175 10.45C44.1042 10.45 44.1975 10.4367 44.2975 10.41C44.3975 10.3767 44.4875 10.3467 44.5675 10.32L44.7275 10.94C44.5942 10.9867 44.4475 11.0267 44.2875 11.06C44.1342 11.1 43.9809 11.12 43.8275 11.12ZM46.5816 11.12C46.1749 11.12 45.8349 11 45.5616 10.76C45.2949 10.5133 45.1616 10.1733 45.1616 9.74C45.1616 9.20667 45.3983 8.8 45.8716 8.52C46.3516 8.23333 47.1083 8.03333 48.1416 7.92C48.1416 7.71333 48.1116 7.51667 48.0516 7.33C47.9983 7.14333 47.8983 6.99333 47.7516 6.88C47.6116 6.76 47.4083 6.7 47.1416 6.7C46.8616 6.7 46.5983 6.75333 46.3516 6.86C46.1049 6.96667 45.8849 7.08667 45.6916 7.22L45.3716 6.65C45.5983 6.50333 45.8749 6.36333 46.2016 6.23C46.5349 6.09 46.8949 6.02 47.2816 6.02C47.8749 6.02 48.3049 6.20333 48.5716 6.57C48.8383 6.93 48.9716 7.41333 48.9716 8.02V11H48.2916L48.2216 10.42H48.1916C47.9649 10.6067 47.7149 10.77 47.4416 10.91C47.1749 11.05 46.8883 11.12 46.5816 11.12ZM46.8216 10.46C47.0549 10.46 47.2749 10.4033 47.4816 10.29C47.6883 10.1767 47.9083 10.0167 48.1416 9.81V8.46C47.3349 8.56 46.7683 8.71 46.4416 8.91C46.1216 9.11 45.9616 9.36667 45.9616 9.68C45.9616 9.95333 46.0449 10.1533 46.2116 10.28C46.3783 10.4 46.5816 10.46 46.8216 10.46ZM52.1407 13.24C51.5473 13.24 51.064 13.1267 50.6907 12.9C50.3173 12.6733 50.1307 12.35 50.1307 11.93C50.1307 11.7233 50.194 11.5233 50.3207 11.33C50.4473 11.1433 50.6207 10.9767 50.8407 10.83V10.79C50.7207 10.7167 50.6173 10.6133 50.5307 10.48C50.4507 10.3467 50.4107 10.1867 50.4107 10C50.4107 9.79333 50.4673 9.61333 50.5807 9.46C50.694 9.30667 50.814 9.18667 50.9407 9.1V9.06C50.7807 8.92667 50.634 8.74667 50.5007 8.52C50.374 8.29333 50.3107 8.03667 50.3107 7.75C50.3107 7.39667 50.394 7.09 50.5607 6.83C50.7273 6.57 50.9507 6.37 51.2307 6.23C51.5107 6.09 51.814 6.02 52.1407 6.02C52.274 6.02 52.4007 6.03333 52.5207 6.06C52.6407 6.08 52.744 6.10667 52.8307 6.14H54.5207V6.77H53.5207C53.634 6.87667 53.7273 7.02 53.8007 7.2C53.8807 7.37333 53.9207 7.56333 53.9207 7.77C53.9207 8.11667 53.8407 8.41667 53.6807 8.67C53.5207 8.92333 53.3073 9.12 53.0407 9.26C52.774 9.39333 52.474 9.46 52.1407 9.46C51.8807 9.46 51.6373 9.40333 51.4107 9.29C51.324 9.36333 51.2507 9.44667 51.1907 9.54C51.1307 9.62667 51.1007 9.73667 51.1007 9.87C51.1007 10.0233 51.1607 10.15 51.2807 10.25C51.4073 10.35 51.634 10.4 51.9607 10.4H52.9007C53.4673 10.4 53.8907 10.4933 54.1707 10.68C54.4573 10.86 54.6007 11.1533 54.6007 11.56C54.6007 11.86 54.5007 12.1367 54.3007 12.39C54.1007 12.6433 53.8173 12.8467 53.4507 13C53.084 13.16 52.6473 13.24 52.1407 13.24ZM52.1407 8.91C52.4207 8.91 52.6607 8.80667 52.8607 8.6C53.0673 8.38667 53.1707 8.10333 53.1707 7.75C53.1707 7.39667 53.0707 7.12 52.8707 6.92C52.6707 6.72 52.4273 6.62 52.1407 6.62C51.854 6.62 51.6107 6.72 51.4107 6.92C51.2107 7.12 51.1107 7.39667 51.1107 7.75C51.1107 8.10333 51.2107 8.38667 51.4107 8.6C51.6173 8.80667 51.8607 8.91 52.1407 8.91ZM52.2607 12.67C52.7273 12.67 53.1007 12.5667 53.3807 12.36C53.6607 12.16 53.8007 11.9333 53.8007 11.68C53.8007 11.4533 53.714 11.2967 53.5407 11.21C53.374 11.1233 53.134 11.08 52.8207 11.08H51.9807C51.8873 11.08 51.784 11.0733 51.6707 11.06C51.564 11.0467 51.4573 11.0267 51.3507 11C51.1773 11.1267 51.0507 11.26 50.9707 11.4C50.8907 11.54 50.8507 11.68 50.8507 11.82C50.8507 12.08 50.974 12.2867 51.2207 12.44C51.474 12.5933 51.8207 12.67 52.2607 12.67ZM57.373 11.12C56.9397 11.12 56.5463 11.02 56.193 10.82C55.8397 10.6133 55.5597 10.32 55.353 9.94C55.1463 9.56 55.043 9.10667 55.043 8.58C55.043 8.04667 55.1463 7.59 55.353 7.21C55.5663 6.83 55.8397 6.53667 56.173 6.33C56.5063 6.12333 56.8563 6.02 57.223 6.02C57.843 6.02 58.3197 6.22667 58.653 6.64C58.993 7.05333 59.163 7.60667 59.163 8.3C59.163 8.38667 59.1597 8.47333 59.153 8.56C59.153 8.64 59.1463 8.71 59.133 8.77H55.853C55.8863 9.28333 56.0463 9.69333 56.333 10C56.6263 10.3067 57.0063 10.46 57.473 10.46C57.7063 10.46 57.9197 10.4267 58.113 10.36C58.313 10.2867 58.503 10.1933 58.683 10.08L58.973 10.62C58.7663 10.7533 58.5297 10.87 58.263 10.97C58.003 11.07 57.7063 11.12 57.373 11.12ZM55.843 8.18H58.443C58.443 7.68667 58.3363 7.31333 58.123 7.06C57.9163 6.8 57.623 6.67 57.243 6.67C56.903 6.67 56.5963 6.80333 56.323 7.07C56.0563 7.33 55.8963 7.7 55.843 8.18ZM62.3359 11V10.32H63.7959V5.62H62.6359V5.09C62.9292 5.03667 63.1826 4.97333 63.3959 4.9C63.6159 4.82 63.8126 4.72667 63.9859 4.62H64.6159V10.32H65.9359V11H62.3359Z" fill="white"/>
<defs>
<clipPath id="clip0_1529_6550">
<rect width="21" height="15" fill="white" transform="translate(5 55)"/>
</clipPath>
<clipPath id="clip1_1529_6550">
<rect width="11" height="12" fill="white" transform="translate(46.5 55.5)"/>
</clipPath>
<clipPath id="clip2_1529_6550">
<rect width="11" height="12" fill="white" transform="translate(82.5 55.5)"/>
</clipPath>
</defs>
</svg>
