<svg width="45" height="40" viewBox="0 0 45 40" fill="none" xmlns="http://www.w3.org/2000/svg">
<g clip-path="url(#clip0_2647_12737)">
<path d="M4 2L40.7696 38.7696" stroke="black" stroke-width="3" stroke-linecap="round"/>
<path d="M13 4C13.8313 4 14.5 4.66875 14.5 5.5V8H23.5V5.5C23.5 4.66875 24.1688 4 25 4C25.8312 4 26.5 4.66875 26.5 5.5V8H29C31.2062 8 33 9.79375 33 12V13V16H30H29H8V32C8 32.55 8.45 33 9 33H21.4062L21.0875 34.2625C20.9437 34.85 20.975 35.45 21.175 36H9C6.79375 36 5 34.2062 5 32V16V13V12C5 9.79375 6.79375 8 9 8H11.5V5.5C11.5 4.66875 12.1687 4 13 4ZM12.5 20H23.5C24.3312 20 25 20.6688 25 21.5C25 22.3312 24.3312 23 23.5 23H12.5C11.6687 23 11 22.3312 11 21.5C11 20.6688 11.6687 20 12.5 20ZM11 27.5C11 26.6688 11.6687 26 12.5 26H19.5C20.3313 26 21 26.6688 21 27.5C21 28.3312 20.3313 29 19.5 29H12.5C11.6687 29 11 28.3312 11 27.5ZM39.3625 18.7312L40.2625 19.6313C41.2375 20.6063 41.2375 22.1875 40.2625 23.1688L38.425 25.0063L33.9875 20.5688L35.825 18.7312C36.8 17.7562 38.3812 17.7562 39.3625 18.7312ZM24.4937 30.0625L32.5688 21.9875L37.0062 26.425L28.9312 34.4937C28.675 34.75 28.3563 34.9312 28 35.0187L24.2437 35.9562C23.9 36.0438 23.5438 35.9438 23.2938 35.6938C23.0438 35.4438 22.9438 35.0875 23.0312 34.7437L23.9688 30.9875C24.0562 30.6375 24.2375 30.3125 24.4937 30.0562V30.0625Z" fill="black"/>
</g>
<defs>
<clipPath id="clip0_2647_12737">
<rect width="45" height="40" fill="white"/>
</clipPath>
</defs>
</svg>
