<svg width="55" height="31" viewBox="0 0 55 31" fill="none" xmlns="http://www.w3.org/2000/svg">
<g clip-path="url(#clip0_1468_15067)">
<path d="M10.9898 5.96463C10.9898 5.01642 11.7559 4.25035 12.7041 4.25035C13.6523 4.25035 14.4184 5.01642 14.4184 5.96463V6.38249C14.4184 7.86642 14.2898 9.34499 14.038 10.8021L9.5166 12.1575C7.3416 12.8111 5.85232 14.8146 5.85232 17.0861V20.9378C5.85232 23.0807 7.59339 24.8218 9.73625 24.8218C11.1291 24.8218 12.4148 24.0771 13.1059 22.8664L13.8505 21.5646C15.2862 19.0468 16.3416 16.3307 16.9791 13.5021L22.0363 11.9861L21.3666 13.995C21.1898 14.52 21.2809 15.0932 21.6023 15.5378C21.9238 15.9825 22.4434 16.2503 22.9952 16.2503H29.847C30.7952 16.2503 31.5613 15.4843 31.5613 14.5361C31.5613 13.5878 30.7952 12.8218 29.847 12.8218H25.3684L26.3327 9.93428C26.5363 9.32892 26.3809 8.65928 25.9363 8.19856C25.4916 7.73785 24.8273 7.56642 24.2113 7.74856L17.6541 9.71999C17.7827 8.61106 17.847 7.50213 17.847 6.38249V5.96463C17.847 3.12535 15.5434 0.821777 12.7041 0.821777C9.86482 0.821777 7.56125 3.12535 7.56125 5.96463V7.67892C7.56125 8.62713 8.32732 9.39321 9.27553 9.39321C10.2237 9.39321 10.9898 8.62713 10.9898 7.67892V5.96463ZM10.497 15.4468L13.122 14.6593C12.5648 16.47 11.8095 18.2164 10.8666 19.8664L10.122 21.1682C10.0416 21.3075 9.8916 21.3986 9.72553 21.3986C9.47375 21.3986 9.27018 21.195 9.27018 20.9432V17.0861C9.27018 16.3307 9.76839 15.6611 10.4916 15.4414L10.497 15.4468ZM1.98982 18.8218C1.27732 18.8218 0.704102 19.395 0.704102 20.1075C0.704102 20.82 1.27732 21.3932 1.98982 21.3932H4.14875C4.13803 21.2432 4.13267 21.0932 4.13267 20.9378V18.8218H1.98982ZM33.7041 21.3932C34.4166 21.3932 34.9898 20.82 34.9898 20.1075C34.9898 19.395 34.4166 18.8218 33.7041 18.8218H17.0916C16.7327 19.695 16.3309 20.5521 15.897 21.3932H33.7041Z" fill="#747D84" fill-opacity="0.8"/>
</g>
<g clip-path="url(#clip1_1468_15067)">
<path d="M29.6573 11.2146C29.6573 10.2664 30.4234 9.50035 31.3716 9.50035C32.3198 9.50035 33.0859 10.2664 33.0859 11.2146V11.6325C33.0859 13.1164 32.9573 14.595 32.7055 16.0521L28.1841 17.4075C26.0091 18.0611 24.5198 20.0646 24.5198 22.3361V26.1878C24.5198 28.3307 26.2609 30.0718 28.4037 30.0718C29.7966 30.0718 31.0823 29.3271 31.7734 28.1164L32.518 26.8146C33.9537 24.2968 35.0091 21.5807 35.6466 18.7521L40.7037 17.2361L40.0341 19.245C39.8573 19.77 39.9484 20.3432 40.2698 20.7878C40.5912 21.2325 41.1109 21.5003 41.6627 21.5003H48.5144C49.4627 21.5003 50.2287 20.7343 50.2287 19.7861C50.2287 18.8378 49.4627 18.0718 48.5144 18.0718H44.0359L45.0002 15.1843C45.2037 14.5789 45.0484 13.9093 44.6037 13.4486C44.1591 12.9878 43.4948 12.8164 42.8787 12.9986L36.3216 14.97C36.4502 13.8611 36.5144 12.7521 36.5144 11.6325V11.2146C36.5144 8.37535 34.2109 6.07178 31.3716 6.07178C28.5323 6.07178 26.2287 8.37535 26.2287 11.2146V12.9289C26.2287 13.8771 26.9948 14.6432 27.943 14.6432C28.8912 14.6432 29.6573 13.8771 29.6573 12.9289V11.2146ZM29.1644 20.6968L31.7894 19.9093C31.2323 21.72 30.4769 23.4664 29.5341 25.1164L28.7894 26.4182C28.7091 26.5575 28.5591 26.6486 28.393 26.6486C28.1412 26.6486 27.9377 26.445 27.9377 26.1932V22.3361C27.9377 21.5807 28.4359 20.9111 29.1591 20.6914L29.1644 20.6968ZM20.6573 24.0718C19.9448 24.0718 19.3716 24.645 19.3716 25.3575C19.3716 26.07 19.9448 26.6432 20.6573 26.6432H22.8162C22.8055 26.4932 22.8002 26.3432 22.8002 26.1878V24.0718H20.6573ZM52.3716 26.6432C53.0841 26.6432 53.6573 26.07 53.6573 25.3575C53.6573 24.645 53.0841 24.0718 52.3716 24.0718H35.7591C35.4002 24.945 34.9984 25.8021 34.5644 26.6432H52.3716Z" fill="#747D84"/>
</g>
<defs>
<clipPath id="clip0_1468_15067">
<rect width="35" height="25" fill="white"/>
</clipPath>
<clipPath id="clip1_1468_15067">
<rect width="35" height="25" fill="white" transform="translate(19.1289 5.95312)"/>
</clipPath>
</defs>
</svg>
